<svg width="23" height="24" viewBox="0 0 23 24" fill="none" xmlns="http://www.w3.org/2000/svg">
<path d="M11.5634 3.10422C6.51066 3.10422 2.41406 7.20082 2.41406 12.2535C2.41406 16.5407 5.36624 20.128 9.34618 21.1207C9.30348 20.9972 9.27603 20.8539 9.27603 20.6762V19.1124C8.90472 19.1124 8.28257 19.1124 8.12627 19.1124C7.50031 19.1124 6.94373 18.8433 6.67382 18.3431C6.37418 17.7873 6.32234 16.9372 5.57972 16.4172C5.35937 16.2441 5.52711 16.0467 5.781 16.0734C6.2499 16.206 6.63875 16.5278 7.00472 17.0051C7.36917 17.4831 7.54072 17.5914 8.22158 17.5914C8.55171 17.5914 9.04578 17.5723 9.51087 17.4991C9.76095 16.864 10.1933 16.2792 10.7216 16.0032C7.67491 15.6898 6.22093 14.1741 6.22093 12.1163C6.22093 11.2303 6.59834 10.3733 7.23955 9.65131C7.02912 8.93461 6.76455 7.47301 7.32037 6.91643C8.69124 6.91643 9.52001 7.80544 9.71901 8.04561C10.4022 7.81154 11.1524 7.67887 11.9408 7.67887C12.7307 7.67887 13.4839 7.81154 14.1686 8.04713C14.3653 7.80849 15.1949 6.91643 16.5688 6.91643C17.1269 7.47378 16.8593 8.94147 16.6466 9.65664C17.284 10.3772 17.6591 11.2318 17.6591 12.1163C17.6591 14.1726 16.2074 15.6876 13.1652 16.0024C14.0024 16.4393 14.6131 17.6669 14.6131 18.5917V20.6762C14.6131 20.7555 14.5956 20.8127 14.5864 20.8805C18.1516 19.6309 20.7127 16.2457 20.7127 12.2535C20.7127 7.20082 16.6161 3.10422 11.5634 3.10422Z" fill="#CC2121"/>
</svg>
