<svg width="25" height="25" viewBox="0 0 25 25" fill="none" xmlns="http://www.w3.org/2000/svg">
<path d="M5.35209 21.2394H1.26758V8.42894H5.35209V21.2394ZM3.31065 6.72087C2.18087 6.72087 1.26758 5.7635 1.26758 4.58493C1.26758 3.40637 2.18251 2.4507 3.31065 2.4507C4.43634 2.4507 5.35209 3.40808 5.35209 4.58493C5.35209 5.7635 4.43634 6.72087 3.31065 6.72087ZM20.0563 21.2394H16.1295V15.005C16.1295 13.5181 16.1025 11.6059 14.088 11.6059C12.0433 11.6059 11.7288 13.2252 11.7288 14.8974V21.2394H7.80279V8.41954H11.572V10.1712H11.6251C12.1495 9.16341 13.4312 8.10099 15.3428 8.10099C19.3211 8.10099 20.0563 10.7562 20.0563 14.2082C20.0563 14.2082 20.0563 21.2394 20.0563 21.2394Z" fill="#CC2121"/>
</svg>
