<svg width="135" height="36" viewBox="0 0 135 36" fill="none" xmlns="http://www.w3.org/2000/svg">
<path d="M2.39941 36C1.26009 36 0.69043 35.3896 0.69043 34.1689V2.82129C0.69043 1.60059 1.26009 0.990234 2.39941 0.990234H10.9199C18.4069 0.990234 23.4688 2.50391 26.1055 5.53125C28.7585 8.55859 30.085 12.8636 30.085 18.4463C30.085 24.029 28.7585 28.3503 26.1055 31.4102C23.4688 34.4701 18.4069 36 10.9199 36H2.39941ZM7.81934 29.9453H10.4561C15.5016 29.9453 18.765 29.0094 20.2461 27.1377C21.7272 25.2497 22.4678 22.3525 22.4678 18.4463C22.4678 14.54 21.7272 11.6592 20.2461 9.80371C18.765 7.93197 15.5016 6.99609 10.4561 6.99609H7.81934V29.9453ZM37.7998 36C36.6605 36 36.0908 35.3896 36.0908 34.1689V2.82129C36.0908 1.60059 36.6605 0.990234 37.7998 0.990234H58.7471C59.9678 0.990234 60.5781 1.51921 60.5781 2.57715V5.45801C60.5781 6.51595 59.9678 7.04492 58.7471 7.04492H43.2197V14.8086H57.4531C58.6738 14.8086 59.2842 15.3376 59.2842 16.3955V19.2764C59.2842 20.3343 58.6738 20.8633 57.4531 20.8633H43.2197V29.9453H59.5283C60.749 29.9453 61.3594 30.4743 61.3594 31.5322V34.4131C61.3594 35.471 60.749 36 59.5283 36H37.7998Z" fill="#161616"/>
<path d="M65.0947 2.60156C64.6878 1.52734 65.0703 0.990234 66.2422 0.990234H70.124C71.2145 0.990234 71.9632 1.55176 72.3701 2.6748L79.8408 23.0605C80.2152 24.1022 80.4349 24.8021 80.5 25.1602C80.5651 25.502 80.6383 26.0798 80.7197 26.8936H80.8174C80.8988 26.0798 80.972 25.502 81.0371 25.1602C81.1022 24.8021 81.3219 24.1022 81.6963 23.0605L89.167 2.6748C89.5739 1.55176 90.3226 0.990234 91.4131 0.990234H95.2949C96.4668 0.990234 96.8493 1.52734 96.4424 2.60156L84.7725 34.0225C84.2842 35.3408 83.5192 36 82.4775 36H79.0596C78.0179 36 77.2529 35.3408 76.7646 34.0225L65.0947 2.60156ZM98.542 2.60156C98.1351 1.52734 98.5176 0.990234 99.6895 0.990234H103.571C104.662 0.990234 105.41 1.55176 105.817 2.6748L113.288 23.0605C113.662 24.1022 113.882 24.8021 113.947 25.1602C114.012 25.502 114.086 26.0798 114.167 26.8936H114.265C114.346 26.0798 114.419 25.502 114.484 25.1602C114.549 24.8021 114.769 24.1022 115.144 23.0605L122.614 2.6748C123.021 1.55176 123.77 0.990234 124.86 0.990234H128.742C129.914 0.990234 130.297 1.52734 129.89 2.60156L118.22 34.0225C117.731 35.3408 116.966 36 115.925 36H112.507C111.465 36 110.7 35.3408 110.212 34.0225L98.542 2.60156ZM129.206 36C128.067 36 127.497 35.3896 127.497 34.1689V30.8975C127.497 29.6768 128.067 29.0664 129.206 29.0664H132.917C134.056 29.0664 134.626 29.6768 134.626 30.8975V34.1689C134.626 35.3896 134.056 36 132.917 36H129.206Z" fill="#CC2121"/>
</svg>
